<?xml version="1.0" encoding="UTF-8"?>
<svg xmlns="http://www.w3.org/2000/svg" xmlns:xlink="http://www.w3.org/1999/xlink" viewBox="0 0 3840 2160">
  <defs>
    <style>
      .cls-1 {
        fill: none;
      }

      .cls-2 {
        clip-path: url(#clippath-1);
      }

      .cls-3 {
        opacity: .25;
      }

      .cls-3, .cls-4, .cls-5 {
        fill: #fff;
      }

      .cls-4 {
        font-family: ScalaSansCaps, 'ScalaSans Caps';
        font-size: 85px;
      }

      .cls-4, .cls-5 {
        opacity: .75;
      }

      .cls-5 {
        font-family: ScalaSansCaps-Bold, 'ScalaSans Caps';
        font-size: 100px;
        font-weight: 700;
      }

      .cls-6 {
        clip-path: url(#clippath);
      }

      .cls-7 {
        fill: #115e67;
      }
    </style>
    <clipPath id="clippath">
      <rect class="cls-1" y="-2180" width="3840" height="2160"/>
    </clipPath>
    <clipPath id="clippath-1">
      <rect class="cls-1" width="3840" height="2160"/>
    </clipPath>
  </defs>
  <g id="Background">
    <rect class="cls-7" width="3840" height="2160"/>
  </g>
  <g id="Compass">
    <g class="cls-6">
      <g>
        <path class="cls-3" d="M3876.95-1035.79c-35.69,455.79-397.26,821.42-851.27,863.52-.35.03-.7.07-1.05.1l-80.04,363.55c708.45-5.53,1281.13-581.31,1281.13-1291.11,0-2.08-.34-9.91-.34-12.04l-348.42,75.98Z"/>
        <path class="cls-3" d="M2211.97-510.68c-119.83-144.91-197.19-326.16-212.85-524.48l-355.98-73.38c-.05,2.12-.13,6.74-.13,8.82,0,713.1,578.05,1291.28,1291.22,1291.36l-76.33-362.38c-260.17-21.12-490.11-149.06-645.93-339.93Z"/>
      </g>
    </g>
    <g class="cls-2">
      <g>
        <path class="cls-3" d="M3536.8,1637.17l-388.79-189.73-109.34,496.62c409.21-46.82,734-375.43,774.83-786.39l-496.64,105.31,219.94,374.2Z"/>
        <path class="cls-3" d="M3036.82,195.72l114.29,497.98,370.04-199.19-201.1,358.76,491.87,114.79c-46.94-404.89-369.78-726.84-775.1-772.34Z"/>
        <path class="cls-3" d="M2348.58,1639.42l217.72-379.64-503.8-102.1c41.08,413.28,369.34,743.31,781.83,787.17l-106.08-503.65-389.67,198.22Z"/>
        <path class="cls-3" d="M2359.9,490.39l375.26,203.31,110.27-498.69c-407.67,42.83-733.27,365.2-781.15,771.37l498.93-113.12-203.3-362.87Z"/>
        <path class="cls-3" d="M3875.8,982.96l349.57,81.58c-8.48-702.88-578.26-1270.51-1281.85-1275.35l78.66,342.74c451.36,40.16,812.1,400.05,853.62,851.03Z"/>
        <path class="cls-3" d="M2859.49,131.43l75.72-342.44c-.28,0-.57-.02-.85-.02-707.05,0-1281.1,568.21-1291.01,1272.85l357.05-80.95c42.63-451.87,405.81-811.83,859.1-849.43Z"/>
        <path class="cls-3" d="M3876.95,1144.21c-35.69,455.79-397.26,821.42-851.27,863.52-.35.03-.7.07-1.05.1l-80.04,363.55c708.45-5.53,1281.13-581.31,1281.13-1291.11,0-2.08-.34-9.91-.34-12.04l-348.42,75.98Z"/>
        <path class="cls-3" d="M2211.97,1669.32c-119.83-144.91-197.19-326.16-212.85-524.48l-355.98-73.38c-.05,2.12-.13,6.74-.13,8.82,0,713.1,578.05,1291.28,1291.22,1291.36l-76.33-362.38c-260.17-21.12-490.11-149.06-645.93-339.93Z"/>
      </g>
    </g>
  </g>
  <g id="VariableText">
    <text class="cls-5" transform="translate(150 233)"><tspan x="0" y="0">{{DisplayName}}</tspan></text>
    <text class="cls-4" transform="translate(150 351.98)"><tspan x="0" y="0">{{JobTitle}}</tspan></text>
  </g>
</svg>